# xmcd
#
# Track frame offsets:
#	150
#	15910
#	33422
#	51447
#	65494
#	82388
#	97668
#	121735
#	136816
#	154290
#	171548
#	187969
#	205846
#	222115
#	236103
#	249698
#	264969
#	280487
#	296721
#	313499
#	331500
#
# Disc length: 4616 seconds
#
# Revision: 0
# Processed by: cddbd v1.5.2PL0 Copyright (c) Steve Scherf et al.
# Submitted via: dBpowerAMP V4.0
#
DISCID=38120615
DTITLE=Various Artist - ERG Nu Country Traxx Vol. 218 CAN
DYEAR=2012
DGENRE=Country
TTITLE0=Tim McGraw - #truckyeah
TTITLE1=Eric Church - Creepin'
TTITLE2=Carrie Underwood  - Blown Away
TTITLE3=Jason Aldean - Take A Little Ride
TTITLE4=Lauren Alaina - Eighteen Inches
TTITLE5=Luke Bryan - Kiss Tomorrow Goodbye
TTITLE6=David Nail  - Someone Like You
TTITLE7=Tim McGraw  - Right Back Atcha Babe
TTITLE8=Randy Rogers Band - One More Sad Song
TTITLE9=Chad Brownlee - Listen
TTITLE10=Kip Moore - Beer Money
TTITLE11=Bobby Wills - Show Some Respect
TTITLE12=Jess Moskaluke - Catch Me If You Can
TTITLE13=High Valley - Let It Be Me
TTITLE14=Her and Kings County - Family Tree
TTITLE15=Emerson Drive - She's My Kind Of Crazy
TTITLE16=Aaron Pritchett - Summertime
TTITLE17=Parmalee - Musta Had A Good Time
TTITLE18=Codie Prevost - Last Night All Day
TTITLE19=Chris Cagle - Let There Be Cowgirls
TTITLE20=Eden's Edge  - Too Good To Be True
EXTD=
EXTT0=
EXTT1=
EXTT2=
EXTT3=
EXTT4=
EXTT5=
EXTT6=
EXTT7=
EXTT8=
EXTT9=
EXTT10=
EXTT11=
EXTT12=
EXTT13=
EXTT14=
EXTT15=
EXTT16=
EXTT17=
EXTT18=
EXTT19=
EXTT20=
PLAYORDER=
